<svg width="98" height="85" viewBox="0 0 98 85" fill="none" xmlns="http://www.w3.org/2000/svg">
<path d="M74.3511 46.6758C73.3485 46.671 72.3766 46.3292 71.5919 45.7055L69.3194 43.9003C68.8438 43.4237 68.4671 42.8579 68.2111 42.2354C67.955 41.6128 67.8246 40.9458 67.8274 40.2728C67.9183 38.6961 68.5992 37.2113 69.7349 36.113L61.9028 28.2443C60.6889 29.304 59.1304 29.8858 57.5185 29.8809C56.2732 29.8382 55.0904 29.3255 54.2084 28.4461L52.8678 27.0549C52.3704 26.5402 51.9879 25.9259 51.7458 25.2525C51.5036 24.5791 51.4072 23.862 51.463 23.1487C51.8701 20.974 53.0416 19.0162 54.7662 17.6287L70.6784 1.72726C71.0746 1.34338 71.5439 1.04286 72.0584 0.843485C72.573 0.644113 73.1223 0.549949 73.6739 0.56657C74.5279 0.656895 75.3523 0.93005 76.0911 1.36743C76.8298 1.80482 77.4656 2.39615 77.9551 3.10117C81.1596 6.96847 95.6922 20.8228 95.8368 20.9627C96.7536 21.8918 97.287 23.1315 97.3312 24.4355C97.3129 25.035 97.1707 25.6243 96.9135 26.1663C96.6563 26.7082 96.2897 27.1912 95.8368 27.5848L79.8672 43.5426C79.2179 44.4211 78.3916 45.1538 77.4415 45.6934C76.4914 46.2331 75.4386 46.5677 74.3511 46.6758ZM62.013 25.4734L64.2465 27.7993L72.6088 36.16L71.8214 36.863C71.2701 37.2698 70.8085 37.7855 70.4653 38.3783C70.1221 38.971 69.9047 39.6279 69.8266 40.3083C69.8244 41.0821 70.1127 41.8285 70.6346 42.4002L72.8199 44.1308C75.3403 46.0427 78.3451 42.2614 78.3727 42.2212L94.441 26.1557C94.7004 25.9441 94.9135 25.6813 95.0667 25.3837C95.2199 25.0861 95.3101 24.7602 95.3316 24.4262C95.2813 23.6643 94.9663 22.9439 94.441 22.3894C93.858 21.8354 79.6949 8.33201 76.4169 4.37411C76.0986 3.9005 75.688 3.49598 75.2095 3.1848C74.7311 2.87362 74.1947 2.66218 73.6325 2.56318C73.3523 2.55096 73.0726 2.59479 72.8097 2.69208C72.5468 2.78937 72.306 2.93817 72.1014 3.12974L55.0806 20.1404L55.0668 20.1266C54.2137 21.0011 53.6503 22.1166 53.4531 23.3219C53.4224 23.7576 53.4849 24.1949 53.6365 24.6047C53.7881 25.0144 54.0253 25.3872 54.3322 25.6982L55.6636 27.0779C55.8932 27.3175 57.9315 29.2512 61.2921 26.1409L62.013 25.4734Z" fill="#727372"/>
<path d="M67.9009 5.91671L69.3149 4.50378L93.4174 28.5894L92.0033 30.0024L67.9009 5.91671ZM28.0859 62.0761L62.3206 27.8669L63.7346 29.2799L29.5 63.4891L28.0859 62.0761ZM35.1789 67.104L68.3829 33.9247L69.7969 35.3377L36.593 68.517L35.1789 67.104Z" fill="#727372"/>
<path d="M25.5333 85C23.1206 85.0001 20.762 84.2853 18.7558 82.9459C16.7497 81.6066 15.186 79.7028 14.2627 77.4754C13.3393 75.248 13.0977 72.7971 13.5684 70.4325C14.039 68.0679 15.2008 65.8958 16.9069 64.191C18.6129 62.4862 20.7866 61.3253 23.153 60.8549C25.5193 60.3846 27.9721 60.626 30.2012 61.5487C32.4302 62.4714 34.3354 64.0338 35.6758 66.0385C37.0162 68.0431 37.7315 70.4 37.7314 72.8109C37.7277 76.0425 36.4414 79.1407 34.1546 81.4258C31.8678 83.7109 28.7673 84.9963 25.5333 85ZM25.5333 62.6163C23.5156 62.6162 21.5432 63.214 19.8655 64.334C18.1877 65.454 16.8801 67.0461 16.1078 68.9087C15.3356 70.7714 15.1334 72.8211 15.527 74.7986C15.9205 76.7761 16.892 78.5925 18.3187 80.0183C19.7453 81.444 21.563 82.415 23.5419 82.8085C25.5208 83.2019 27.5721 83.0001 29.4362 82.2287C31.3004 81.4572 32.8937 80.1507 34.0148 78.4743C35.1358 76.798 35.7343 74.8271 35.7344 72.8109C35.7311 70.1083 34.6553 67.5174 32.743 65.6063C30.8306 63.6951 28.2379 62.6199 25.5333 62.6163Z" fill="#727372"/>
<path d="M25.5333 78.621C24.3833 78.621 23.2592 78.2803 22.303 77.6419C21.3468 77.0034 20.6015 76.096 20.1614 75.0344C19.7214 73.9727 19.6062 72.8045 19.8305 71.6775C20.0549 70.5504 20.6087 69.5151 21.4218 68.7026C22.235 67.89 23.271 67.3366 24.3989 67.1124C25.5268 66.8883 26.6959 67.0033 27.7583 67.4431C28.8208 67.8828 29.7289 68.6275 30.3678 69.583C31.0067 70.5384 31.3477 71.6617 31.3477 72.8109C31.3462 74.3513 30.7332 75.8283 29.6431 76.9176C28.553 78.0069 27.0749 78.6195 25.5333 78.621ZM25.5333 68.9964C24.7783 68.9964 24.0403 69.2201 23.4125 69.6393C22.7848 70.0584 22.2955 70.6541 22.0066 71.3511C21.7176 72.0481 21.642 72.8151 21.7893 73.555C21.9366 74.295 22.3002 74.9746 22.8341 75.5081C23.3679 76.0416 24.0481 76.4049 24.7886 76.5521C25.5291 76.6992 26.2966 76.6237 26.9941 76.335C27.6916 76.0463 28.2878 75.5574 28.7073 74.9301C29.1267 74.3028 29.3506 73.5653 29.3506 72.8109C29.3495 71.7996 28.9469 70.83 28.2313 70.1149C27.5156 69.3998 26.5454 68.9976 25.5333 68.9964ZM23.7015 45.8512C23.5569 45.8512 23.4146 45.8454 23.27 45.8328C21.0962 45.4272 19.139 44.2586 17.7516 42.5378L1.83255 26.6306C1.44851 26.2351 1.14782 25.7665 0.94831 25.2527C0.748796 24.7389 0.654511 24.1904 0.671041 23.6395C0.760923 22.7859 1.03406 21.9618 1.4718 21.2233C1.90955 20.4848 2.5016 19.8495 3.20753 19.3605C7.07769 16.1596 20.9423 1.63888 21.0824 1.49208C22.0023 0.587896 23.2249 0.05633 24.5141 0L24.5577 0C25.1577 0.0182865 25.7474 0.160382 26.2898 0.417357C26.8322 0.674331 27.3155 1.04063 27.7094 1.49323L43.679 17.4487C45.4557 18.8296 48.332 22.4549 45.8436 25.7189L44.0394 27.9897C43.0961 28.9284 41.8241 29.4632 40.4929 29.4807L40.4057 29.4795C38.8279 29.3897 37.342 28.7091 36.244 27.5734L28.3682 35.4009C29.4275 36.6147 30.0099 38.1714 30.0072 39.7819C29.9655 41.0264 29.4518 42.2085 28.5702 43.0884L27.1792 44.4291C26.2425 45.3268 24.9993 45.8352 23.7015 45.8512ZM20.2445 42.2305C21.1192 43.0836 22.2357 43.6467 23.4421 43.843C23.8782 43.8746 24.316 43.8126 24.7261 43.6613C25.1363 43.51 25.5093 43.2728 25.8202 42.9656L27.2021 41.6341C27.4431 41.4024 29.3759 39.3656 26.2632 36.0121L25.5953 35.293L27.9252 33.0589L36.2899 24.7027L36.9946 25.4883C37.4018 26.0392 37.9179 26.5007 38.511 26.844C39.1041 27.1873 39.7615 27.4051 40.4424 27.4839C41.2042 27.4252 41.9321 27.1445 42.5359 26.6765L44.2666 24.4928C46.1833 21.98 42.3958 18.9717 42.3568 18.9419L26.2793 2.88775C26.0667 2.62655 25.802 2.41244 25.502 2.25904C25.2021 2.10564 24.8734 2.01631 24.5371 1.99673H24.5164C23.7683 2.05937 23.0631 2.37206 22.5147 2.88434C21.9546 3.47155 8.44113 17.6229 4.48145 20.8996C4.00271 21.2183 3.59468 21.632 3.28272 22.115C2.97076 22.598 2.76153 23.1399 2.66803 23.7071C2.65864 24.257 2.85792 24.7901 3.22582 25.1992L20.2582 42.2178L20.2445 42.2305Z" fill="#727372"/>
<path d="M4.61182 27.9948L28.7154 3.90918L30.1294 5.32214L6.02583 29.4078L4.61182 27.9948ZM27.9922 35.0824L29.4054 33.6709L43.6625 47.9232L42.2494 49.3347L27.9922 35.0824ZM34.1533 28.9249L35.5663 27.5132L49.8258 41.7655L48.4128 43.1772L34.1533 28.9249ZM48.415 55.4912L49.8281 54.0796L62.8595 67.1047L61.4464 68.5164L48.415 55.4912ZM54.5761 49.3325L55.9892 47.9208L68.8599 60.7854L67.4468 62.197L54.5761 49.3325Z" fill="#727372"/>
<path d="M72.9692 83.9334C70.5565 83.9335 68.1979 83.2187 66.1917 81.8793C64.1856 80.5399 62.622 78.6362 61.6986 76.4088C60.7752 74.1814 60.5336 71.7304 61.0043 69.3658C61.4749 67.0012 62.6368 64.8292 64.3428 63.1244C66.0489 61.4196 68.2225 60.2586 70.5889 59.7883C72.9553 59.318 75.4081 59.5594 77.6371 60.4821C79.8662 61.4048 81.7713 62.9672 83.1117 64.9719C84.4521 66.9766 85.1674 69.3334 85.1673 71.7443C85.1637 74.976 83.8774 78.0742 81.5906 80.3593C79.3038 82.6445 76.2032 83.9298 72.9692 83.9334ZM72.9692 61.5497C70.9515 61.5496 68.9791 62.1473 67.3014 63.2674C65.6237 64.3874 64.316 65.9794 63.5437 67.8421C62.7715 69.7048 62.5694 71.7545 62.9629 73.7319C63.3564 75.7094 64.3279 77.5259 65.7545 78.9516C67.1812 80.3774 68.9989 81.3484 70.9778 81.7418C72.9567 82.1353 75.0079 81.9335 76.8721 81.1621C78.7362 80.3906 80.3296 79.0841 81.4507 77.4077C82.5717 75.7314 83.1701 73.7605 83.1703 71.7443C83.1671 69.0417 82.0914 66.4507 80.179 64.5395C78.2667 62.6284 75.6738 61.5531 72.9692 61.5497Z" fill="#727372"/>
<path d="M72.9693 77.5544C71.8191 77.5545 70.6948 77.2138 69.7384 76.5754C68.7821 75.9369 68.0366 75.0294 67.5964 73.9677C67.1562 72.9059 67.041 71.7375 67.2654 70.6103C67.4897 69.483 68.0436 68.4476 68.8569 67.635C69.6701 66.8223 70.7063 66.2689 71.8344 66.0447C72.9624 65.8205 74.1317 65.9356 75.1943 66.3755C76.2569 66.8153 77.165 67.5602 77.804 68.5159C78.4429 69.4715 78.7838 70.595 78.7837 71.7443C78.7822 73.2848 78.1691 74.7617 77.079 75.851C75.989 76.9403 74.5109 77.5529 72.9693 77.5544ZM72.9693 67.9286C72.2142 67.9285 71.476 68.1521 70.848 68.5713C70.2201 68.9904 69.7306 69.5861 69.4416 70.2832C69.1525 70.9803 69.0767 71.7474 69.2239 72.4874C69.3711 73.2275 69.7347 73.9074 70.2685 74.441C70.8024 74.9747 71.4826 75.3381 72.2232 75.4854C72.9638 75.6328 73.7315 75.5573 74.4292 75.2687C75.1269 74.98 75.7232 74.4911 76.1428 73.8638C76.5625 73.2365 76.7865 72.4989 76.7866 71.7443C76.7855 70.7329 76.383 69.7632 75.6674 69.0478C74.9518 68.3325 73.9815 67.93 72.9693 67.9286Z" fill="#727372"/>
</svg>
